<svg width="23" height="23" viewBox="0 0 23 23" fill="none" xmlns="http://www.w3.org/2000/svg">
    <path d="M23 2.87498H20.8438C19.6547 2.87498 18.6875 3.84218 18.6875 5.03122V13.6562C18.6875 14.8452 17.7203 15.8124 16.5313 15.8124H15.8125V2.15624C15.8125 0.967202 14.8453 0 13.6562 0H3.59377C2.40474 0 1.43749 0.967202 1.43749 2.15624V18.7936C0.607925 19.0662 0 19.8768 0 20.8438V23H17.25V20.8438C17.25 19.8768 16.6421 19.0662 15.8125 18.7936V17.25H16.5313C18.5127 17.25 20.125 15.6377 20.125 13.6562V6.91305L21.1652 6.39297C21.5204 6.21539 21.6643 5.78373 21.4867 5.42853L20.9287 4.31252H23V2.87498ZM2.87502 2.15624C2.87502 1.75965 3.19718 1.43749 3.59377 1.43749H13.6563C14.0529 1.43749 14.375 1.75965 14.375 2.15624V7.1875H2.87502V2.15624ZM14.375 8.62499V18.6875H2.87502V8.62499H14.375ZM15.8125 21.5625H1.43749V20.8438C1.43749 20.4472 1.7063 20.125 2.03623 20.125H15.2138C15.5437 20.125 15.8125 20.4472 15.8125 20.8438C15.8125 20.8438 15.8125 21.5625 15.8125 21.5625V21.5625Z" fill="grey"/>
</svg>
