<svg width="23" height="23" viewBox="0 0 23 23" fill="none" xmlns="http://www.w3.org/2000/svg">
    <path d="M16.1071 22.7547H6.64957C5.58005 22.7944 4.53805 22.4105 3.74999 21.6863C2.96192 20.9622 2.49146 19.9563 2.44082 18.8872V13.8172C2.44082 13.6017 2.52643 13.3951 2.6788 13.2427C2.83117 13.0903 3.03784 13.0047 3.25332 13.0047C3.46881 13.0047 3.67548 13.0903 3.82785 13.2427C3.98022 13.3951 4.06582 13.6017 4.06582 13.8172V18.8872C4.11576 19.5254 4.41474 20.1183 4.89818 20.5379C5.38162 20.9575 6.01072 21.1701 6.64957 21.1297H16.1071C16.7459 21.1701 17.375 20.9575 17.8585 20.5379C18.3419 20.1183 18.6409 19.5254 18.6908 18.8872V13.8172C18.6908 13.6017 18.7764 13.3951 18.9288 13.2427C19.0812 13.0903 19.2878 13.0047 19.5033 13.0047C19.7188 13.0047 19.9255 13.0903 20.0778 13.2427C20.2302 13.3951 20.3158 13.6017 20.3158 13.8172V18.8872C20.2652 19.9563 19.7947 20.9622 19.0067 21.6863C18.2186 22.4105 17.1766 22.7944 16.1071 22.7547V22.7547ZM22.5177 11.9566C22.5939 11.8811 22.6543 11.7912 22.6955 11.6922C22.7368 11.5932 22.758 11.487 22.758 11.3797C22.758 11.2725 22.7368 11.1663 22.6955 11.0672C22.6543 10.9682 22.5939 10.8784 22.5177 10.8028L11.9552 0.240336C11.8797 0.164182 11.7898 0.103736 11.6908 0.0624869C11.5918 0.0212373 11.4856 0 11.3783 0C11.2711 0 11.1649 0.0212373 11.0659 0.0624869C10.9668 0.103736 10.877 0.164182 10.8014 0.240336L0.238949 10.8028C0.0859526 10.9558 0 11.1633 0 11.3797C0 11.5961 0.0859526 11.8036 0.238949 11.9566C0.391946 12.1096 0.599454 12.1955 0.815824 12.1955C1.03219 12.1955 1.2397 12.1096 1.3927 11.9566L11.3783 1.96284L21.3639 11.9566C21.4395 12.0327 21.5293 12.0932 21.6284 12.1344C21.7274 12.1757 21.8336 12.1969 21.9408 12.1969C22.0481 12.1969 22.1543 12.1757 22.2533 12.1344C22.3523 12.0932 22.4422 12.0327 22.5177 11.9566Z" fill="grey"/>
</svg>
