<svg width="100" height="125" xmlns="http://www.w3.org/2000/svg">

 <g>
  <title>background</title>
  <rect fill="none" id="canvas_background" height="402" width="582" y="-1" x="-1"/>
 </g>
 <g>
  <title>Layer 1</title>
  <path id="svg_1" d="m49.524,4.038c-16.815,0 -30.443,13.627 -30.443,30.44c0,13.341 8.596,24.65 20.54,28.761l10.23931,11.761l9.88569,-11.878c11.771,-4.206 20.216,-15.425 20.216,-28.644c0,-16.813 -13.633,-30.44 -30.438,-30.44zm0.001,55.107c-13.625,0 -24.664,-11.043 -24.664,-24.667s11.039,-24.664 24.664,-24.664c13.622,0 24.657,11.041 24.657,24.664c0,13.622 -11.036,24.667 -24.657,24.667z" fill="#43B2E7"/>
 </g>
</svg>