<svg width="22" height="26" viewBox="0 0 22 26" fill="none" xmlns="http://www.w3.org/2000/svg">
    <path d="M18.7764 3.19747C14.4785 -1.06559 7.52194 -1.06605 3.22359 3.19747C-1.0742 7.46039 -1.07486 14.3608 3.22359 18.6243L10.4188 25.7612C10.7398 26.0796 11.2603 26.0796 11.5812 25.7612L18.7765 18.6243C23.0742 14.3614 23.0749 7.46105 18.7764 3.19747V3.19747ZM17.614 17.4713L11 24.0317L4.38604 17.4713C0.739119 13.8539 0.739119 7.96793 4.38604 4.35056C8.03302 0.733232 13.9669 0.73313 17.614 4.35056C21.2609 7.96788 21.2609 13.8539 17.614 17.4713Z" fill="grey"/>
    <path d="M10.5 6C8.01297 6 6 8.01257 6 10.5C6 12.987 8.01264 15 10.5 15C12.9871 15 15 12.9873 15 10.5C15 8.01299 12.9874 6 10.5 6V6ZM12.6179 12.618C12.5891 12.618 11.8799 13.4952 10.5 13.4952C8.8446 13.4952 7.50478 12.1556 7.50478 10.5C7.50478 8.84463 8.84441 7.5048 10.5 7.5048C13.1891 7.5048 14.4816 10.7543 12.6179 12.618V12.618Z" fill="grey"/>
</svg>
