<svg width="26" height="26" viewBox="0 0 26 26" fill="none" xmlns="http://www.w3.org/2000/svg">
    <path d="M0.448303 14.3449H2.77928C3.39183 18.9694 7.03062 22.6082 11.6551 23.2207V25.5517C11.6559 25.7991 11.8562 25.9992 12.1034 26H13.8966C14.1438 25.9992 14.3441 25.7991 14.3449 25.5517V23.2207C18.9694 22.6082 22.6082 18.9694 23.2207 14.3449H25.5517C25.7991 14.3441 25.9992 14.1438 26 13.8966V12.1034C25.9992 11.8562 25.7991 11.6559 25.5517 11.6551H23.2207C22.6082 7.03062 18.9694 3.39183 14.3449 2.77928V0.448303C14.3441 0.200943 14.1438 0.000793457 13.8966 0H12.1034C11.8562 0.000793457 11.6559 0.200943 11.6551 0.448303V2.77928C7.03062 3.39183 3.39183 7.03062 2.77928 11.6551H0.448303C0.200943 11.6559 0.000793457 11.8562 0 12.1034V13.8966C0.000793457 14.1438 0.200943 14.3441 0.448303 14.3449ZM13 5.37924C17.2087 5.37924 20.6208 8.79131 20.6208 13C20.6208 17.2087 17.2087 20.6208 13 20.6208C8.79131 20.6208 5.37924 17.2087 5.37924 13C5.38519 8.79369 8.79369 5.38519 13 5.37924Z" fill="black"/>
    <path d="M16 13C16 14.6569 14.6569 16 13 16C11.3431 16 10 14.6569 10 13C10 11.3431 11.3431 10 13 10C14.6569 10 16 11.3431 16 13V13Z" fill="black"/>
</svg>
